# xmcd CD database file
#
# Track frame offsets:
#	150
#	21782
#	46085
#	70355
#	92267
#	111367
#	133280
#	155320
#	177800
#	198897
#	218985
#	232857
#	253490
#	273362
#
# Disc length: 3826 seconds
#
# Revision: 0
# Processed by: cddbd v1.5.1PL0 Copyright (c) Steve Scherf et al.
# Submitted via: CDex 1.51
#
DISCID=c00ef00e
DTITLE=Philip Nikwé - movin' pata
DYEAR=1995
DGENRE=Blues
TTITLE0=marley
TTITLE1=movin' pata
TTITLE2=sabrina
TTITLE3=congo moon
TTITLE4=i can't take...
TTITLE5=tellin' the truth
TTITLE6=two faced woman
TTITLE7=it's her that i want
TTITLE8=stay on it
TTITLE9=higher plateau
TTITLE10=ted
TTITLE11=sexy lady
TTITLE12=zonkaba
TTITLE13=kpèlè
EXTD=YEAR: 1995
EXTT0=
EXTT1=
EXTT2=
EXTT3=
EXTT4=
EXTT5=
EXTT6=
EXTT7=
EXTT8=
EXTT9=
EXTT10=
EXTT11=
EXTT12=
EXTT13=
PLAYORDER=
